<?xml version="1.0" encoding="UTF-8" standalone="no"?>
<!-- Created with Inkscape (http://www.inkscape.org/) -->
<!-- Artist: Terri Oda  <terri.oda@gmail.com>   -->
<!-- Date:   June 16, 2015 -->
<!-- Notes:  This is a set of banners and signs used in celebration of the
             IRC bot 'talkative' on one of our internal work IRC channels.
             Eventually, I intend to make a full alphabet set of the banners.
-->

<svg
   xmlns:dc="http://purl.org/dc/elements/1.1/"
   xmlns:cc="http://creativecommons.org/ns#"
   xmlns:rdf="http://www.w3.org/1999/02/22-rdf-syntax-ns#"
   xmlns:svg="http://www.w3.org/2000/svg"
   xmlns="http://www.w3.org/2000/svg"
   xmlns:sodipodi="http://sodipodi.sourceforge.net/DTD/sodipodi-0.dtd"
   xmlns:inkscape="http://www.inkscape.org/namespaces/inkscape"
   width="744.09448819"
   height="1052.3622047"
   id="svg2"
   version="1.1"
   inkscape:version="0.48.2 r9819"
   sodipodi:docname="talkative.svg">
  <defs
     id="defs4" />
  <sodipodi:namedview
     id="base"
     pagecolor="#ffffff"
     bordercolor="#666666"
     borderopacity="1.0"
     inkscape:pageopacity="0.0"
     inkscape:pageshadow="2"
     inkscape:zoom="0.66"
     inkscape:cx="455.92474"
     inkscape:cy="444.14794"
     inkscape:document-units="px"
     inkscape:current-layer="g3943"
     showgrid="true"
     inkscape:snap-global="true"
     inkscape:window-width="1334"
     inkscape:window-height="823"
     inkscape:window-x="4"
     inkscape:window-y="0"
     inkscape:window-maximized="0">
    <inkscape:grid
       type="xygrid"
       id="grid2989" />
  </sodipodi:namedview>
  <metadata
     id="metadata7">
    <rdf:RDF>
      <cc:Work
         rdf:about="">
        <dc:format>image/svg+xml</dc:format>
        <dc:type
           rdf:resource="http://purl.org/dc/dcmitype/StillImage" />
        <dc:title />
      </cc:Work>
    </rdf:RDF>
  </metadata>
  <g
     inkscape:label="Layer 1"
     inkscape:groupmode="layer"
     id="layer1">
    <g
       id="g3763">
      <path
         sodipodi:nodetypes="cccccc"
         inkscape:connector-curvature="0"
         id="path2987"
         d="m 10,52.362183 20,149.999997 40,-30 40,30 20,-149.999997 z"
         style="fill:none;stroke:#000000;stroke-width:1px;stroke-linecap:butt;stroke-linejoin:miter;stroke-opacity:1" />
      <path
         d="m 40,72.362183 c 0,5.522847 -4.477153,10 -10,10 -5.522847,0 -10,-4.477153 -10,-10 0,-5.522848 4.477153,-10 10,-10 5.522847,0 10,4.477152 10,10 z"
         sodipodi:ry="10"
         sodipodi:rx="10"
         sodipodi:cy="72.362183"
         sodipodi:cx="30"
         id="path2991"
         style="fill:none;stroke:#000000;stroke-opacity:1"
         sodipodi:type="arc" />
      <path
         transform="translate(80,0)"
         sodipodi:type="arc"
         style="fill:none;stroke:#000000;stroke-opacity:1"
         id="path3761"
         sodipodi:cx="30"
         sodipodi:cy="72.362183"
         sodipodi:rx="10"
         sodipodi:ry="10"
         d="m 40,72.362183 c 0,5.522847 -4.477153,10 -10,10 -5.522847,0 -10,-4.477153 -10,-10 0,-5.522848 4.477153,-10 10,-10 5.522847,0 10,4.477152 10,10 z" />
    </g>
    <text
       xml:space="preserve"
       style="font-size:12px;font-style:normal;font-variant:normal;font-weight:normal;font-stretch:normal;line-height:125%;letter-spacing:0px;word-spacing:0px;fill:#000000;fill-opacity:1;stroke:none;font-family:Arial Unicode MS;-inkscape-font-specification:Arial Unicode MS"
       x="40.560001"
       y="155.84218"
       id="text2991"
       sodipodi:linespacing="125%"><tspan
         sodipodi:role="line"
         id="tspan2993"
         x="40.560001"
         y="155.84218"
         style="font-size:80px;font-style:normal;font-variant:normal;font-weight:bold;font-stretch:normal;font-family:Km Standard TT;-inkscape-font-specification:Km Standard TT Bold">T</tspan></text>
    <g
       id="g2989"
       transform="translate(140,0)">
      <path
         style="fill:none;stroke:#000000;stroke-width:1px;stroke-linecap:butt;stroke-linejoin:miter;stroke-opacity:1"
         d="m 10,52.362183 20,149.999997 40,-30 40,30 20,-149.999997 z"
         id="path2992"
         inkscape:connector-curvature="0"
         sodipodi:nodetypes="cccccc" />
      <path
         sodipodi:type="arc"
         style="fill:none;stroke:#000000;stroke-opacity:1"
         id="path2994"
         sodipodi:cx="30"
         sodipodi:cy="72.362183"
         sodipodi:rx="10"
         sodipodi:ry="10"
         d="m 40,72.362183 a 10,10 0 1 1 -20,0 10,10 0 1 1 20,0 z" />
      <path
         d="m 40,72.362183 a 10,10 0 1 1 -20,0 10,10 0 1 1 20,0 z"
         sodipodi:ry="10"
         sodipodi:rx="10"
         sodipodi:cy="72.362183"
         sodipodi:cx="30"
         id="path2996"
         style="fill:none;stroke:#000000;stroke-opacity:1"
         sodipodi:type="arc"
         transform="translate(80,0)" />
    </g>
    <g
       transform="translate(280,0)"
       id="g2998">
      <path
         sodipodi:nodetypes="cccccc"
         inkscape:connector-curvature="0"
         id="path3000"
         d="m 10,52.362183 20,149.999997 40,-30 40,30 20,-149.999997 z"
         style="fill:none;stroke:#000000;stroke-width:1px;stroke-linecap:butt;stroke-linejoin:miter;stroke-opacity:1" />
      <path
         d="m 40,72.362183 a 10,10 0 1 1 -20,0 10,10 0 1 1 20,0 z"
         sodipodi:ry="10"
         sodipodi:rx="10"
         sodipodi:cy="72.362183"
         sodipodi:cx="30"
         id="path3002"
         style="fill:none;stroke:#000000;stroke-opacity:1"
         sodipodi:type="arc" />
      <path
         transform="translate(80,0)"
         sodipodi:type="arc"
         style="fill:none;stroke:#000000;stroke-opacity:1"
         id="path3004"
         sodipodi:cx="30"
         sodipodi:cy="72.362183"
         sodipodi:rx="10"
         sodipodi:ry="10"
         d="m 40,72.362183 a 10,10 0 1 1 -20,0 10,10 0 1 1 20,0 z" />
    </g>
    <g
       id="g3006"
       transform="translate(420,0)">
      <path
         style="fill:none;stroke:#000000;stroke-width:1px;stroke-linecap:butt;stroke-linejoin:miter;stroke-opacity:1"
         d="m 10,52.362183 20,149.999997 40,-30 40,30 20,-149.999997 z"
         id="path3008"
         inkscape:connector-curvature="0"
         sodipodi:nodetypes="cccccc" />
      <path
         sodipodi:type="arc"
         style="fill:none;stroke:#000000;stroke-opacity:1"
         id="path3010"
         sodipodi:cx="30"
         sodipodi:cy="72.362183"
         sodipodi:rx="10"
         sodipodi:ry="10"
         d="m 40,72.362183 a 10,10 0 1 1 -20,0 10,10 0 1 1 20,0 z" />
      <path
         d="m 40,72.362183 a 10,10 0 1 1 -20,0 10,10 0 1 1 20,0 z"
         sodipodi:ry="10"
         sodipodi:rx="10"
         sodipodi:cy="72.362183"
         sodipodi:cx="30"
         id="path3012"
         style="fill:none;stroke:#000000;stroke-opacity:1"
         sodipodi:type="arc"
         transform="translate(80,0)" />
    </g>
    <g
       transform="translate(560,0)"
       id="g3014">
      <path
         sodipodi:nodetypes="cccccc"
         inkscape:connector-curvature="0"
         id="path3016"
         d="m 10,52.362183 20,149.999997 40,-30 40,30 20,-149.999997 z"
         style="fill:none;stroke:#000000;stroke-width:1px;stroke-linecap:butt;stroke-linejoin:miter;stroke-opacity:1" />
      <path
         d="m 40,72.362183 a 10,10 0 1 1 -20,0 10,10 0 1 1 20,0 z"
         sodipodi:ry="10"
         sodipodi:rx="10"
         sodipodi:cy="72.362183"
         sodipodi:cx="30"
         id="path3018"
         style="fill:none;stroke:#000000;stroke-opacity:1"
         sodipodi:type="arc" />
      <path
         transform="translate(80,0)"
         sodipodi:type="arc"
         style="fill:none;stroke:#000000;stroke-opacity:1"
         id="path3020"
         sodipodi:cx="30"
         sodipodi:cy="72.362183"
         sodipodi:rx="10"
         sodipodi:ry="10"
         d="m 40,72.362183 a 10,10 0 1 1 -20,0 10,10 0 1 1 20,0 z" />
    </g>
    <g
       transform="translate(140,0)"
       id="g3022">
      <path
         sodipodi:nodetypes="cccccc"
         inkscape:connector-curvature="0"
         id="path3024"
         d="m 10,52.362183 20,149.999997 40,-30 40,30 20,-149.999997 z"
         style="fill:none;stroke:#000000;stroke-width:1px;stroke-linecap:butt;stroke-linejoin:miter;stroke-opacity:1" />
      <path
         d="m 40,72.362183 c 0,5.522847 -4.477153,10 -10,10 -5.522847,0 -10,-4.477153 -10,-10 0,-5.522848 4.477153,-10 10,-10 5.522847,0 10,4.477152 10,10 z"
         sodipodi:ry="10"
         sodipodi:rx="10"
         sodipodi:cy="72.362183"
         sodipodi:cx="30"
         id="path3026"
         style="fill:none;stroke:#000000;stroke-opacity:1"
         sodipodi:type="arc" />
      <path
         transform="translate(80,0)"
         sodipodi:type="arc"
         style="fill:none;stroke:#000000;stroke-opacity:1"
         id="path3028"
         sodipodi:cx="30"
         sodipodi:cy="72.362183"
         sodipodi:rx="10"
         sodipodi:ry="10"
         d="m 40,72.362183 c 0,5.522847 -4.477153,10 -10,10 -5.522847,0 -10,-4.477153 -10,-10 0,-5.522848 4.477153,-10 10,-10 5.522847,0 10,4.477152 10,10 z" />
    </g>
    <g
       id="g3030"
       transform="translate(280,0)">
      <path
         style="fill:none;stroke:#000000;stroke-width:1px;stroke-linecap:butt;stroke-linejoin:miter;stroke-opacity:1"
         d="m 10,52.362183 20,149.999997 40,-30 40,30 20,-149.999997 z"
         id="path3032"
         inkscape:connector-curvature="0"
         sodipodi:nodetypes="cccccc" />
      <path
         sodipodi:type="arc"
         style="fill:none;stroke:#000000;stroke-opacity:1"
         id="path3034"
         sodipodi:cx="30"
         sodipodi:cy="72.362183"
         sodipodi:rx="10"
         sodipodi:ry="10"
         d="m 40,72.362183 c 0,5.522847 -4.477153,10 -10,10 -5.522847,0 -10,-4.477153 -10,-10 0,-5.522848 4.477153,-10 10,-10 5.522847,0 10,4.477152 10,10 z" />
      <path
         d="m 40,72.362183 c 0,5.522847 -4.477153,10 -10,10 -5.522847,0 -10,-4.477153 -10,-10 0,-5.522848 4.477153,-10 10,-10 5.522847,0 10,4.477152 10,10 z"
         sodipodi:ry="10"
         sodipodi:rx="10"
         sodipodi:cy="72.362183"
         sodipodi:cx="30"
         id="path3036"
         style="fill:none;stroke:#000000;stroke-opacity:1"
         sodipodi:type="arc"
         transform="translate(80,0)" />
    </g>
    <g
       transform="translate(420,0)"
       id="g3038">
      <path
         sodipodi:nodetypes="cccccc"
         inkscape:connector-curvature="0"
         id="path3040"
         d="m 10,52.362183 20,149.999997 40,-30 40,30 20,-149.999997 z"
         style="fill:none;stroke:#000000;stroke-width:1px;stroke-linecap:butt;stroke-linejoin:miter;stroke-opacity:1" />
      <path
         d="m 40,72.362183 c 0,5.522847 -4.477153,10 -10,10 -5.522847,0 -10,-4.477153 -10,-10 0,-5.522848 4.477153,-10 10,-10 5.522847,0 10,4.477152 10,10 z"
         sodipodi:ry="10"
         sodipodi:rx="10"
         sodipodi:cy="72.362183"
         sodipodi:cx="30"
         id="path3042"
         style="fill:none;stroke:#000000;stroke-opacity:1"
         sodipodi:type="arc" />
      <path
         transform="translate(80,0)"
         sodipodi:type="arc"
         style="fill:none;stroke:#000000;stroke-opacity:1"
         id="path3044"
         sodipodi:cx="30"
         sodipodi:cy="72.362183"
         sodipodi:rx="10"
         sodipodi:ry="10"
         d="m 40,72.362183 c 0,5.522847 -4.477153,10 -10,10 -5.522847,0 -10,-4.477153 -10,-10 0,-5.522848 4.477153,-10 10,-10 5.522847,0 10,4.477152 10,10 z" />
    </g>
    <g
       id="g3046"
       transform="translate(560,0)">
      <path
         style="fill:none;stroke:#000000;stroke-width:1px;stroke-linecap:butt;stroke-linejoin:miter;stroke-opacity:1"
         d="m 10,52.362183 20,149.999997 40,-30 40,30 20,-149.999997 z"
         id="path3048"
         inkscape:connector-curvature="0"
         sodipodi:nodetypes="cccccc" />
      <path
         sodipodi:type="arc"
         style="fill:none;stroke:#000000;stroke-opacity:1"
         id="path3050"
         sodipodi:cx="30"
         sodipodi:cy="72.362183"
         sodipodi:rx="10"
         sodipodi:ry="10"
         d="m 40,72.362183 c 0,5.522847 -4.477153,10 -10,10 -5.522847,0 -10,-4.477153 -10,-10 0,-5.522848 4.477153,-10 10,-10 5.522847,0 10,4.477152 10,10 z" />
      <path
         d="m 40,72.362183 c 0,5.522847 -4.477153,10 -10,10 -5.522847,0 -10,-4.477153 -10,-10 0,-5.522848 4.477153,-10 10,-10 5.522847,0 10,4.477152 10,10 z"
         sodipodi:ry="10"
         sodipodi:rx="10"
         sodipodi:cy="72.362183"
         sodipodi:cx="30"
         id="path3052"
         style="fill:none;stroke:#000000;stroke-opacity:1"
         sodipodi:type="arc"
         transform="translate(80,0)" />
    </g>
    <g
       id="g3054"
       transform="translate(0,180)">
      <path
         style="fill:none;stroke:#000000;stroke-width:1px;stroke-linecap:butt;stroke-linejoin:miter;stroke-opacity:1"
         d="m 10,52.362183 20,149.999997 40,-30 40,30 20,-149.999997 z"
         id="path3056"
         inkscape:connector-curvature="0"
         sodipodi:nodetypes="cccccc" />
      <path
         sodipodi:type="arc"
         style="fill:none;stroke:#000000;stroke-opacity:1"
         id="path3058"
         sodipodi:cx="30"
         sodipodi:cy="72.362183"
         sodipodi:rx="10"
         sodipodi:ry="10"
         d="m 40,72.362183 a 10,10 0 1 1 -20,0 10,10 0 1 1 20,0 z" />
      <path
         d="m 40,72.362183 a 10,10 0 1 1 -20,0 10,10 0 1 1 20,0 z"
         sodipodi:ry="10"
         sodipodi:rx="10"
         sodipodi:cy="72.362183"
         sodipodi:cx="30"
         id="path3060"
         style="fill:none;stroke:#000000;stroke-opacity:1"
         sodipodi:type="arc"
         transform="translate(80,0)" />
    </g>
    <text
       sodipodi:linespacing="125%"
       id="text3062"
       y="335.84219"
       x="40.560001"
       style="font-size:12px;font-style:normal;font-variant:normal;font-weight:normal;font-stretch:normal;line-height:125%;letter-spacing:0px;word-spacing:0px;fill:#000000;fill-opacity:1;stroke:none;font-family:Arial Unicode MS;-inkscape-font-specification:Arial Unicode MS"
       xml:space="preserve"><tspan
         style="font-size:80px;font-style:normal;font-variant:normal;font-weight:bold;font-stretch:normal;font-family:Km Standard TT;-inkscape-font-specification:Km Standard TT Bold"
         y="335.84219"
         x="40.560001"
         id="tspan3064"
         sodipodi:role="line">T</tspan></text>
    <g
       transform="translate(140,180)"
       id="g3066">
      <path
         sodipodi:nodetypes="cccccc"
         inkscape:connector-curvature="0"
         id="path3068"
         d="m 10,52.362183 20,149.999997 40,-30 40,30 20,-149.999997 z"
         style="fill:none;stroke:#000000;stroke-width:1px;stroke-linecap:butt;stroke-linejoin:miter;stroke-opacity:1" />
      <path
         d="m 40,72.362183 a 10,10 0 1 1 -20,0 10,10 0 1 1 20,0 z"
         sodipodi:ry="10"
         sodipodi:rx="10"
         sodipodi:cy="72.362183"
         sodipodi:cx="30"
         id="path3070"
         style="fill:none;stroke:#000000;stroke-opacity:1"
         sodipodi:type="arc" />
      <path
         transform="translate(80,0)"
         sodipodi:type="arc"
         style="fill:none;stroke:#000000;stroke-opacity:1"
         id="path3072"
         sodipodi:cx="30"
         sodipodi:cy="72.362183"
         sodipodi:rx="10"
         sodipodi:ry="10"
         d="m 40,72.362183 a 10,10 0 1 1 -20,0 10,10 0 1 1 20,0 z" />
    </g>
    <g
       id="g3074"
       transform="translate(280,180)">
      <path
         style="fill:none;stroke:#000000;stroke-width:1px;stroke-linecap:butt;stroke-linejoin:miter;stroke-opacity:1"
         d="m 10,52.362183 20,149.999997 40,-30 40,30 20,-149.999997 z"
         id="path3076"
         inkscape:connector-curvature="0"
         sodipodi:nodetypes="cccccc" />
      <path
         sodipodi:type="arc"
         style="fill:none;stroke:#000000;stroke-opacity:1"
         id="path3078"
         sodipodi:cx="30"
         sodipodi:cy="72.362183"
         sodipodi:rx="10"
         sodipodi:ry="10"
         d="m 40,72.362183 a 10,10 0 1 1 -20,0 10,10 0 1 1 20,0 z" />
      <path
         d="m 40,72.362183 a 10,10 0 1 1 -20,0 10,10 0 1 1 20,0 z"
         sodipodi:ry="10"
         sodipodi:rx="10"
         sodipodi:cy="72.362183"
         sodipodi:cx="30"
         id="path3080"
         style="fill:none;stroke:#000000;stroke-opacity:1"
         sodipodi:type="arc"
         transform="translate(80,0)" />
    </g>
    <g
       transform="translate(420,180)"
       id="g3082">
      <path
         sodipodi:nodetypes="cccccc"
         inkscape:connector-curvature="0"
         id="path3084"
         d="m 10,52.362183 20,149.999997 40,-30 40,30 20,-149.999997 z"
         style="fill:none;stroke:#000000;stroke-width:1px;stroke-linecap:butt;stroke-linejoin:miter;stroke-opacity:1" />
      <path
         d="m 40,72.362183 a 10,10 0 1 1 -20,0 10,10 0 1 1 20,0 z"
         sodipodi:ry="10"
         sodipodi:rx="10"
         sodipodi:cy="72.362183"
         sodipodi:cx="30"
         id="path3086"
         style="fill:none;stroke:#000000;stroke-opacity:1"
         sodipodi:type="arc" />
      <path
         transform="translate(80,0)"
         sodipodi:type="arc"
         style="fill:none;stroke:#000000;stroke-opacity:1"
         id="path3088"
         sodipodi:cx="30"
         sodipodi:cy="72.362183"
         sodipodi:rx="10"
         sodipodi:ry="10"
         d="m 40,72.362183 a 10,10 0 1 1 -20,0 10,10 0 1 1 20,0 z" />
    </g>
    <g
       id="g3090"
       transform="translate(560,180)">
      <path
         style="fill:none;stroke:#000000;stroke-width:1px;stroke-linecap:butt;stroke-linejoin:miter;stroke-opacity:1"
         d="m 10,52.362183 20,149.999997 40,-30 40,30 20,-149.999997 z"
         id="path3092"
         inkscape:connector-curvature="0"
         sodipodi:nodetypes="cccccc" />
      <path
         sodipodi:type="arc"
         style="fill:none;stroke:#000000;stroke-opacity:1"
         id="path3094"
         sodipodi:cx="30"
         sodipodi:cy="72.362183"
         sodipodi:rx="10"
         sodipodi:ry="10"
         d="m 40,72.362183 a 10,10 0 1 1 -20,0 10,10 0 1 1 20,0 z" />
      <path
         d="m 40,72.362183 a 10,10 0 1 1 -20,0 10,10 0 1 1 20,0 z"
         sodipodi:ry="10"
         sodipodi:rx="10"
         sodipodi:cy="72.362183"
         sodipodi:cx="30"
         id="path3096"
         style="fill:none;stroke:#000000;stroke-opacity:1"
         sodipodi:type="arc"
         transform="translate(80,0)" />
    </g>
    <g
       id="g3098"
       transform="translate(140,180)">
      <path
         style="fill:none;stroke:#000000;stroke-width:1px;stroke-linecap:butt;stroke-linejoin:miter;stroke-opacity:1"
         d="m 10,52.362183 20,149.999997 40,-30 40,30 20,-149.999997 z"
         id="path3100"
         inkscape:connector-curvature="0"
         sodipodi:nodetypes="cccccc" />
      <path
         sodipodi:type="arc"
         style="fill:none;stroke:#000000;stroke-opacity:1"
         id="path3102"
         sodipodi:cx="30"
         sodipodi:cy="72.362183"
         sodipodi:rx="10"
         sodipodi:ry="10"
         d="m 40,72.362183 a 10,10 0 1 1 -20,0 10,10 0 1 1 20,0 z" />
      <path
         d="m 40,72.362183 a 10,10 0 1 1 -20,0 10,10 0 1 1 20,0 z"
         sodipodi:ry="10"
         sodipodi:rx="10"
         sodipodi:cy="72.362183"
         sodipodi:cx="30"
         id="path3104"
         style="fill:none;stroke:#000000;stroke-opacity:1"
         sodipodi:type="arc"
         transform="translate(80,0)" />
    </g>
    <g
       transform="translate(280,180)"
       id="g3106">
      <path
         sodipodi:nodetypes="cccccc"
         inkscape:connector-curvature="0"
         id="path3108"
         d="m 10,52.362183 20,149.999997 40,-30 40,30 20,-149.999997 z"
         style="fill:none;stroke:#000000;stroke-width:1px;stroke-linecap:butt;stroke-linejoin:miter;stroke-opacity:1" />
      <path
         d="m 40,72.362183 a 10,10 0 1 1 -20,0 10,10 0 1 1 20,0 z"
         sodipodi:ry="10"
         sodipodi:rx="10"
         sodipodi:cy="72.362183"
         sodipodi:cx="30"
         id="path3110"
         style="fill:none;stroke:#000000;stroke-opacity:1"
         sodipodi:type="arc" />
      <path
         transform="translate(80,0)"
         sodipodi:type="arc"
         style="fill:none;stroke:#000000;stroke-opacity:1"
         id="path3112"
         sodipodi:cx="30"
         sodipodi:cy="72.362183"
         sodipodi:rx="10"
         sodipodi:ry="10"
         d="m 40,72.362183 a 10,10 0 1 1 -20,0 10,10 0 1 1 20,0 z" />
    </g>
    <g
       id="g3114"
       transform="translate(420,180)">
      <path
         style="fill:none;stroke:#000000;stroke-width:1px;stroke-linecap:butt;stroke-linejoin:miter;stroke-opacity:1"
         d="m 10,52.362183 20,149.999997 40,-30 40,30 20,-149.999997 z"
         id="path3116"
         inkscape:connector-curvature="0"
         sodipodi:nodetypes="cccccc" />
      <path
         sodipodi:type="arc"
         style="fill:none;stroke:#000000;stroke-opacity:1"
         id="path3118"
         sodipodi:cx="30"
         sodipodi:cy="72.362183"
         sodipodi:rx="10"
         sodipodi:ry="10"
         d="m 40,72.362183 a 10,10 0 1 1 -20,0 10,10 0 1 1 20,0 z" />
      <path
         d="m 40,72.362183 a 10,10 0 1 1 -20,0 10,10 0 1 1 20,0 z"
         sodipodi:ry="10"
         sodipodi:rx="10"
         sodipodi:cy="72.362183"
         sodipodi:cx="30"
         id="path3120"
         style="fill:none;stroke:#000000;stroke-opacity:1"
         sodipodi:type="arc"
         transform="translate(80,0)" />
    </g>
    <g
       transform="translate(560,180)"
       id="g3122">
      <path
         sodipodi:nodetypes="cccccc"
         inkscape:connector-curvature="0"
         id="path3124"
         d="m 10,52.362183 20,149.999997 40,-30 40,30 20,-149.999997 z"
         style="fill:none;stroke:#000000;stroke-width:1px;stroke-linecap:butt;stroke-linejoin:miter;stroke-opacity:1" />
      <path
         d="m 40,72.362183 a 10,10 0 1 1 -20,0 10,10 0 1 1 20,0 z"
         sodipodi:ry="10"
         sodipodi:rx="10"
         sodipodi:cy="72.362183"
         sodipodi:cx="30"
         id="path3126"
         style="fill:none;stroke:#000000;stroke-opacity:1"
         sodipodi:type="arc" />
      <path
         transform="translate(80,0)"
         sodipodi:type="arc"
         style="fill:none;stroke:#000000;stroke-opacity:1"
         id="path3128"
         sodipodi:cx="30"
         sodipodi:cy="72.362183"
         sodipodi:rx="10"
         sodipodi:ry="10"
         d="m 40,72.362183 a 10,10 0 1 1 -20,0 10,10 0 1 1 20,0 z" />
    </g>
    <text
       sodipodi:linespacing="125%"
       id="text3130"
       y="156.56218"
       x="178.75999"
       style="font-size:12px;font-style:normal;font-variant:normal;font-weight:normal;font-stretch:normal;line-height:125%;letter-spacing:0px;word-spacing:0px;fill:#000000;fill-opacity:1;stroke:none;font-family:Arial Unicode MS;-inkscape-font-specification:Arial Unicode MS"
       xml:space="preserve"><tspan
         style="font-size:80px;font-style:normal;font-variant:normal;font-weight:bold;font-stretch:normal;font-family:Km Standard TT;-inkscape-font-specification:Km Standard TT Bold"
         y="156.56218"
         x="178.75999"
         id="tspan3132"
         sodipodi:role="line">A</tspan></text>
    <text
       xml:space="preserve"
       style="font-size:12px;font-style:normal;font-variant:normal;font-weight:normal;font-stretch:normal;line-height:125%;letter-spacing:0px;word-spacing:0px;fill:#000000;fill-opacity:1;stroke:none;font-family:Arial Unicode MS;-inkscape-font-specification:Arial Unicode MS"
       x="322.07999"
       y="155.84218"
       id="text3134"
       sodipodi:linespacing="125%"><tspan
         sodipodi:role="line"
         id="tspan3136"
         x="322.07999"
         y="155.84218"
         style="font-size:80px;font-style:normal;font-variant:normal;font-weight:bold;font-stretch:normal;font-family:Km Standard TT;-inkscape-font-specification:Km Standard TT Bold">L</tspan></text>
    <text
       sodipodi:linespacing="125%"
       id="text3138"
       y="155.84218"
       x="457.51999"
       style="font-size:12px;font-style:normal;font-variant:normal;font-weight:normal;font-stretch:normal;line-height:125%;letter-spacing:0px;word-spacing:0px;fill:#000000;fill-opacity:1;stroke:none;font-family:Arial Unicode MS;-inkscape-font-specification:Arial Unicode MS"
       xml:space="preserve"><tspan
         style="font-size:80px;font-style:normal;font-variant:normal;font-weight:bold;font-stretch:normal;font-family:Km Standard TT;-inkscape-font-specification:Km Standard TT Bold"
         y="155.84218"
         x="457.51999"
         id="tspan3140"
         sodipodi:role="line">K</tspan></text>
    <text
       xml:space="preserve"
       style="font-size:12px;font-style:normal;font-variant:normal;font-weight:normal;font-stretch:normal;line-height:125%;letter-spacing:0px;word-spacing:0px;fill:#000000;fill-opacity:1;stroke:none;font-family:Arial Unicode MS;-inkscape-font-specification:Arial Unicode MS"
       x="598.76001"
       y="156.56218"
       id="text3142"
       sodipodi:linespacing="125%"><tspan
         sodipodi:role="line"
         id="tspan3144"
         x="598.76001"
         y="156.56218"
         style="font-size:80px;font-style:normal;font-variant:normal;font-weight:bold;font-stretch:normal;font-family:Km Standard TT;-inkscape-font-specification:Km Standard TT Bold">A</tspan></text>
    <text
       xml:space="preserve"
       style="font-size:12px;font-style:normal;font-variant:normal;font-weight:normal;font-stretch:normal;line-height:125%;letter-spacing:0px;word-spacing:0px;fill:#000000;fill-opacity:1;stroke:none;font-family:Arial Unicode MS;-inkscape-font-specification:Arial Unicode MS"
       x="318.16"
       y="335.12219"
       id="text3146"
       sodipodi:linespacing="125%"><tspan
         sodipodi:role="line"
         id="tspan3148"
         x="318.16"
         y="335.12219"
         style="font-size:80px;font-style:normal;font-variant:normal;font-weight:bold;font-stretch:normal;font-family:Km Standard TT;-inkscape-font-specification:Km Standard TT Bold">V</tspan></text>
    <text
       sodipodi:linespacing="125%"
       id="text3150"
       y="335.84219"
       x="191.60001"
       style="font-size:12px;font-style:normal;font-variant:normal;font-weight:normal;font-stretch:normal;line-height:125%;letter-spacing:0px;word-spacing:0px;fill:#000000;fill-opacity:1;stroke:none;font-family:Arial Unicode MS;-inkscape-font-specification:Arial Unicode MS"
       xml:space="preserve"><tspan
         style="font-size:80px;font-style:normal;font-variant:normal;font-weight:bold;font-stretch:normal;font-family:Km Standard TT;-inkscape-font-specification:Km Standard TT Bold"
         y="335.84219"
         x="191.60001"
         id="tspan3152"
         sodipodi:role="line">I</tspan></text>
    <text
       xml:space="preserve"
       style="font-size:12px;font-style:normal;font-variant:normal;font-weight:normal;font-stretch:normal;line-height:125%;letter-spacing:0px;word-spacing:0px;fill:#000000;fill-opacity:1;stroke:none;font-family:Arial Unicode MS;-inkscape-font-specification:Arial Unicode MS"
       x="462"
       y="332.36218"
       id="text3154"
       sodipodi:linespacing="125%"><tspan
         sodipodi:role="line"
         id="tspan3156"
         x="462"
         y="332.36218"
         style="font-size:80px;font-style:normal;font-variant:normal;font-weight:bold;font-stretch:normal;font-family:Km Standard TT;-inkscape-font-specification:Km Standard TT Bold">E</tspan></text>
    <path
       sodipodi:type="star"
       style="fill:none;stroke:#000000;stroke-width:5;stroke-linecap:round;stroke-miterlimit:4;stroke-opacity:1;stroke-dasharray:none"
       id="path3162"
       sodipodi:sides="5"
       sodipodi:cx="610"
       sodipodi:cy="282.36218"
       sodipodi:r1="35"
       sodipodi:r2="18.027756"
       sodipodi:arg1="-1.5707963"
       sodipodi:arg2="-0.98279369"
       inkscape:flatsided="false"
       inkscape:rounded="0"
       inkscape:randomized="0"
       d="m 610,247.36218 10,20 23.28698,4.18441 -15.93096,15.6909 3.21646,23.44029 -19.84587,-10.30249 -21.29909,10.30249 3.66553,-22.0582 -16.38003,-17.07299 22.1113,-3.33023 z"
       transform="translate(20,24.999999)" />
    <g
       id="g3938"
       transform="translate(-10,-30)">
      <rect
         y="442.36218"
         x="30"
         height="140"
         width="190"
         id="rect3164"
         style="opacity:0.98000004;fill:none;stroke:#000000;stroke-width:2;stroke-linecap:round;stroke-miterlimit:4;stroke-opacity:1;stroke-dasharray:none" />
      <rect
         ry="0"
         y="582.36218"
         x="80"
         height="110"
         width="90"
         id="rect3934"
         style="opacity:0.98000004;fill:none;stroke:#000000;stroke-width:2;stroke-linecap:round;stroke-miterlimit:4;stroke-opacity:1;stroke-dasharray:none" />
      <rect
         y="572.36218"
         x="110"
         height="20"
         width="30"
         id="rect3936"
         style="opacity:0.98000004;fill:#ffffff;fill-opacity:1;stroke:none" />
    </g>
    <g
       transform="translate(290,10.198403)"
       id="g3943">
      <g
         id="g3982"
         transform="translate(-40,-40)">
        <rect
           y="445.96216"
           x="-19.473663"
           height="106.4"
           width="230"
           id="rect3945"
           style="opacity:0.98000004;fill:none;stroke:#000000;stroke-width:1.91833258;stroke-linecap:round;stroke-miterlimit:4;stroke-opacity:1;stroke-dasharray:none" />
        <rect
           ry="0"
           y="552.36218"
           x="41.05265"
           height="83.599998"
           width="108.94736"
           id="rect3947"
           style="opacity:0.98000004;fill:none;stroke:#000000;stroke-width:1.91833258;stroke-linecap:round;stroke-miterlimit:4;stroke-opacity:1;stroke-dasharray:none" />
        <rect
           y="544.76215"
           x="77.368439"
           height="15.2"
           width="36.315788"
           id="rect3949"
           style="opacity:0.98000004;fill:#ffffff;fill-opacity:1;stroke:none" />
      </g>
      <path
         style="fill:none;stroke:#000000;stroke-width:1px;stroke-linecap:butt;stroke-linejoin:miter;stroke-opacity:1"
         d="m 190,712.16378 c 0,0 -27.57825,43.48111 -50,40 -22.42175,-3.48112 -60.33655,-31.63066 -60,-70 0.33655,-38.36934 110,-120 110,-120 0,0 109.66345,81.63066 110,120 0.33655,38.36934 -37.57825,66.51889 -60,70 -22.42175,3.48111 -50,-40 -50,-40 z"
         id="path3951"
         inkscape:connector-curvature="0"
         sodipodi:nodetypes="czzczzc" />
      <g
         id="g4000"
         transform="translate(-20,-30.198403)">
        <rect
           y="712.36218"
           x="-260"
           height="140"
           width="330"
           id="rect3953"
           style="opacity:0.98000004;fill:#ffffff;fill-opacity:1;stroke:#000000;stroke-width:2;stroke-miterlimit:4;stroke-opacity:1;stroke-dasharray:none" />
        <rect
           transform="translate(-290,0)"
           y="852.36218"
           x="30"
           height="130"
           width="60"
           id="rect3955"
           style="opacity:0.98000004;fill:#ffffff;fill-opacity:1;stroke:#000000;stroke-width:2;stroke-linecap:round;stroke-miterlimit:4;stroke-opacity:1;stroke-dasharray:none" />
        <rect
           style="opacity:0.98000004;fill:#ffffff;fill-opacity:1;stroke:#000000;stroke-width:2;stroke-linecap:round;stroke-miterlimit:4;stroke-opacity:1;stroke-dasharray:none"
           id="rect3959"
           width="60"
           height="130"
           x="10"
           y="852.36218" />
        <rect
           transform="translate(-290,0)"
           y="842.36218"
           x="30"
           height="20"
           width="20"
           id="rect3961"
           style="opacity:0.98000004;fill:#ffffff;fill-opacity:1;stroke:none" />
        <rect
           style="opacity:0.98000004;fill:#ffffff;fill-opacity:1;stroke:none"
           id="rect3963"
           width="20"
           height="20"
           x="50"
           y="842.36218" />
      </g>
      <g
         id="g3987"
         transform="translate(-50,-20.198403)">
        <rect
           ry="30"
           transform="translate(-290,0)"
           y="792.36218"
           x="410"
           height="130"
           width="200"
           id="rect3965"
           style="opacity:0.98000004;fill:#ffffff;fill-opacity:1;stroke:#000000;stroke-width:2;stroke-miterlimit:4;stroke-opacity:1;stroke-dasharray:none" />
        <rect
           ry="0"
           transform="translate(-290,0)"
           y="922.36218"
           x="470"
           height="100"
           width="80"
           id="rect3967"
           style="opacity:0.98000004;fill:#ffffff;fill-opacity:1;stroke:#000000;stroke-width:2;stroke-linecap:round;stroke-miterlimit:4;stroke-opacity:1;stroke-dasharray:none" />
        <rect
           style="opacity:0.98000004;fill:#ffffff;fill-opacity:1;stroke:none"
           id="rect3969"
           width="20"
           height="20"
           x="210"
           y="912.36218" />
      </g>
      <g
         id="g3977"
         transform="translate(228.94735,-40)">
        <rect
           style="opacity:0.98000004;fill:none;stroke:#000000;stroke-width:1.91833258;stroke-linecap:round;stroke-miterlimit:4;stroke-opacity:1;stroke-dasharray:none"
           id="rect3971"
           width="230"
           height="106.4"
           x="-19.473663"
           y="445.96216" />
        <rect
           style="opacity:0.98000004;fill:none;stroke:#000000;stroke-width:1.91833258;stroke-linecap:round;stroke-miterlimit:4;stroke-opacity:1;stroke-dasharray:none"
           id="rect3973"
           width="108.94736"
           height="83.599998"
           x="41.05265"
           y="552.36218"
           ry="0" />
        <rect
           style="opacity:0.98000004;fill:#ffffff;fill-opacity:1;stroke:none"
           id="rect3975"
           width="36.315788"
           height="15.2"
           x="77.368439"
           y="544.76215" />
      </g>
      <g
         transform="matrix(0,-1.1358696,-0.66956524,0,974.53818,1146.6203)"
         id="g3992">
        <rect
           style="opacity:0.98000004;fill:#ffffff;fill-opacity:1;stroke:#000000;stroke-width:2;stroke-miterlimit:4;stroke-opacity:1;stroke-dasharray:none"
           id="rect3994"
           width="200"
           height="130"
           x="410"
           y="792.36218"
           transform="translate(-290,0)"
           ry="30" />
        <rect
           style="opacity:0.98000004;fill:#ffffff;fill-opacity:1;stroke:#000000;stroke-width:2;stroke-linecap:round;stroke-miterlimit:4;stroke-opacity:1;stroke-dasharray:none"
           id="rect3996"
           width="80"
           height="100"
           x="470"
           y="922.36218"
           transform="translate(-290,0)"
           ry="0" />
        <rect
           y="912.36218"
           x="210"
           height="20"
           width="20"
           id="rect3998"
           style="opacity:0.98000004;fill:#ffffff;fill-opacity:1;stroke:none" />
      </g>
    </g>
  </g>
</svg>
